<svg data-v-5f19e91b="" xmlns="http://www.w3.org/2000/svg" width="443" height="90" viewBox="0 0 443 90"><!----> <!----> <!----> <g data-v-5f19e91b="" id="80624df5-8f9d-2b37-a1f3-87ee870a1a51" fill="black" transform="matrix(5.415162492161021,0,0,5.415162492161021,109.40432449244284,3.194944213494985)"><path d="M5.87 3.35L5.87 9.93L5.87 9.93Q5.87 10.63 5.72 11.23L5.72 11.23L5.72 11.23Q5.57 11.83 5.20 12.29L5.20 12.29L5.20 12.29Q4.83 12.74 4.21 13.00L4.21 13.00L4.21 13.00Q3.58 13.26 2.65 13.26L2.65 13.26L2.65 13.26Q2.17 13.26 1.77 13.18L1.77 13.18L1.77 13.18Q1.37 13.10 1.05 12.98L1.05 12.98L1.05 12.98Q0.73 12.87 0.49 12.73L0.49 12.73L0.49 12.73Q0.25 12.60 0.11 12.47L0.11 12.47L0.64 11.40L0.64 11.40Q0.94 11.61 1.41 11.84L1.41 11.84L1.41 11.84Q1.88 12.07 2.58 12.07L2.58 12.07L2.58 12.07Q3.58 12.07 4.05 11.56L4.05 11.56L4.05 11.56Q4.51 11.05 4.51 9.80L4.51 9.80L4.51 3.35L5.87 3.35ZM14.55 9.41L14.55 9.41L14.55 9.41Q14.55 10.28 14.29 10.98L14.29 10.98L14.29 10.98Q14.04 11.68 13.59 12.18L13.59 12.18L13.59 12.18Q13.13 12.68 12.50 12.96L12.50 12.96L12.50 12.96Q11.87 13.23 11.13 13.23L11.13 13.23L11.13 13.23Q10.39 13.23 9.76 12.96L9.76 12.96L9.76 12.96Q9.13 12.68 8.67 12.18L8.67 12.18L8.67 12.18Q8.22 11.68 7.97 10.98L7.97 10.98L7.97 10.98Q7.71 10.28 7.71 9.41L7.71 9.41L7.71 9.41Q7.71 8.55 7.97 7.85L7.97 7.85L7.97 7.85Q8.22 7.14 8.67 6.64L8.67 6.64L8.67 6.64Q9.13 6.13 9.76 5.86L9.76 5.86L9.76 5.86Q10.39 5.59 11.13 5.59L11.13 5.59L11.13 5.59Q11.87 5.59 12.50 5.86L12.50 5.86L12.50 5.86Q13.13 6.13 13.59 6.64L13.59 6.64L13.59 6.64Q14.04 7.14 14.29 7.85L14.29 7.85L14.29 7.85Q14.55 8.55 14.55 9.41ZM13.19 9.41L13.19 9.41L13.19 9.41Q13.19 8.18 12.63 7.46L12.63 7.46L12.63 7.46Q12.08 6.73 11.13 6.73L11.13 6.73L11.13 6.73Q10.18 6.73 9.63 7.46L9.63 7.46L9.63 7.46Q9.07 8.18 9.07 9.41L9.07 9.41L9.07 9.41Q9.07 10.64 9.63 11.36L9.63 11.36L9.63 11.36Q10.18 12.08 11.13 12.08L11.13 12.08L11.13 12.08Q12.08 12.08 12.63 11.36L12.63 11.36L12.63 11.36Q13.19 10.64 13.19 9.41ZM17.68 2.18L17.68 6.09L17.68 6.09Q17.92 5.94 18.40 5.77L18.40 5.77L18.40 5.77Q18.89 5.60 19.52 5.60L19.52 5.60L19.52 5.60Q20.30 5.60 20.91 5.88L20.91 5.88L20.91 5.88Q21.52 6.16 21.94 6.66L21.94 6.66L21.94 6.66Q22.36 7.17 22.57 7.87L22.57 7.87L22.57 7.87Q22.79 8.57 22.79 9.41L22.79 9.41L22.79 9.41Q22.79 10.29 22.53 11.00L22.53 11.00L22.53 11.00Q22.27 11.70 21.80 12.19L21.80 12.19L21.80 12.19Q21.32 12.68 20.65 12.95L20.65 12.95L20.65 12.95Q19.98 13.22 19.14 13.22L19.14 13.22L19.14 13.22Q18.23 13.22 17.53 13.09L17.53 13.09L17.53 13.09Q16.83 12.96 16.38 12.84L16.38 12.84L16.38 2.41L17.68 2.18ZM17.68 7.31L17.68 11.91L17.68 11.91Q17.88 11.97 18.23 12.02L18.23 12.02L18.23 12.02Q18.59 12.07 19.12 12.07L19.12 12.07L19.12 12.07Q20.17 12.07 20.80 11.38L20.80 11.38L20.80 11.38Q21.43 10.68 21.43 9.41L21.43 9.41L21.43 9.41Q21.43 8.85 21.32 8.36L21.32 8.36L21.32 8.36Q21.21 7.87 20.96 7.51L20.96 7.51L20.96 7.51Q20.71 7.15 20.31 6.95L20.31 6.95L20.31 6.95Q19.91 6.75 19.35 6.75L19.35 6.75L19.35 6.75Q18.82 6.75 18.37 6.93L18.37 6.93L18.37 6.93Q17.92 7.11 17.68 7.31L17.68 7.31ZM25.93 5.77L25.93 13.05L24.63 13.05L24.63 5.77L25.93 5.77ZM25.27 4.45L25.27 4.45L25.27 4.45Q24.92 4.45 24.68 4.22L24.68 4.22L24.68 4.22Q24.43 3.99 24.43 3.60L24.43 3.60L24.43 3.60Q24.43 3.21 24.68 2.97L24.68 2.97L24.68 2.97Q24.92 2.74 25.27 2.74L25.27 2.74L25.27 2.74Q25.62 2.74 25.87 2.97L25.87 2.97L25.87 2.97Q26.11 3.21 26.11 3.60L26.11 3.60L26.11 3.60Q26.11 3.99 25.87 4.22L25.87 4.22L25.87 4.22Q25.62 4.45 25.27 4.45ZM28.17 13.05L28.17 5.98L28.17 5.98Q28.62 5.87 29.36 5.74L29.36 5.74L29.36 5.74Q30.10 5.61 31.07 5.61L31.07 5.61L31.07 5.61Q31.93 5.61 32.51 5.86L32.51 5.86L32.51 5.86Q33.08 6.10 33.43 6.54L33.43 6.54L33.43 6.54Q33.77 6.99 33.91 7.60L33.91 7.60L33.91 7.60Q34.05 8.22 34.05 8.96L34.05 8.96L34.05 13.05L32.75 13.05L32.75 9.24L32.75 9.24Q32.75 8.57 32.66 8.09L32.66 8.09L32.66 8.09Q32.56 7.62 32.35 7.32L32.35 7.32L32.35 7.32Q32.14 7.03 31.79 6.89L31.79 6.89L31.79 6.89Q31.44 6.76 30.93 6.76L30.93 6.76L30.93 6.76Q30.72 6.76 30.49 6.78L30.49 6.78L30.49 6.78Q30.27 6.79 30.07 6.81L30.07 6.81L30.07 6.81Q29.86 6.83 29.70 6.86L29.70 6.86L29.70 6.86Q29.54 6.89 29.47 6.90L29.47 6.90L29.47 13.05L28.17 13.05ZM38.67 12.11L38.67 12.11L38.67 12.11Q39.13 12.11 39.49 12.09L39.49 12.09L39.49 12.09Q39.84 12.07 40.08 12.01L40.08 12.01L40.08 9.84L40.08 9.84Q39.94 9.77 39.63 9.72L39.63 9.72L39.63 9.72Q39.31 9.67 38.86 9.67L38.86 9.67L38.86 9.67Q38.57 9.67 38.24 9.72L38.24 9.72L38.24 9.72Q37.91 9.76 37.64 9.89L37.64 9.89L37.64 9.89Q37.37 10.02 37.18 10.25L37.18 10.25L37.18 10.25Q37.00 10.49 37.00 10.86L37.00 10.86L37.00 10.86Q37.00 11.56 37.45 11.84L37.45 11.84L37.45 11.84Q37.90 12.11 38.67 12.11ZM38.56 5.59L38.56 5.59L38.56 5.59Q39.34 5.59 39.88 5.79L39.88 5.79L39.88 5.79Q40.42 5.99 40.75 6.36L40.75 6.36L40.75 6.36Q41.08 6.73 41.22 7.25L41.22 7.25L41.22 7.25Q41.36 7.76 41.36 8.37L41.36 8.37L41.36 12.92L41.36 12.92Q41.19 12.95 40.89 13.00L40.89 13.00L40.89 13.00Q40.59 13.05 40.21 13.09L40.21 13.09L40.21 13.09Q39.83 13.13 39.39 13.17L39.39 13.17L39.39 13.17Q38.95 13.20 38.51 13.20L38.51 13.20L38.51 13.20Q37.90 13.20 37.38 13.08L37.38 13.08L37.38 13.08Q36.86 12.95 36.48 12.68L36.48 12.68L36.48 12.68Q36.11 12.40 35.90 11.96L35.90 11.96L35.90 11.96Q35.69 11.51 35.69 10.88L35.69 10.88L35.69 10.88Q35.69 10.28 35.93 9.84L35.93 9.84L35.93 9.84Q36.18 9.41 36.60 9.14L36.60 9.14L36.60 9.14Q37.02 8.88 37.58 8.75L37.58 8.75L37.58 8.75Q38.14 8.62 38.75 8.62L38.75 8.62L38.75 8.62Q38.95 8.62 39.16 8.64L39.16 8.64L39.16 8.64Q39.37 8.67 39.56 8.70L39.56 8.70L39.56 8.70Q39.75 8.74 39.89 8.76L39.89 8.76L39.89 8.76Q40.03 8.79 40.08 8.81L40.08 8.81L40.08 8.44L40.08 8.44Q40.08 8.12 40.01 7.80L40.01 7.80L40.01 7.80Q39.94 7.49 39.76 7.25L39.76 7.25L39.76 7.25Q39.58 7 39.26 6.85L39.26 6.85L39.26 6.85Q38.95 6.71 38.44 6.71L38.44 6.71L38.44 6.71Q37.80 6.71 37.32 6.80L37.32 6.80L37.32 6.80Q36.83 6.89 36.60 6.99L36.60 6.99L36.44 5.91L36.44 5.91Q36.69 5.80 37.28 5.69L37.28 5.69L37.28 5.69Q37.87 5.59 38.56 5.59ZM44.73 3.51L44.73 5.77L47.49 5.77L47.49 6.86L44.73 6.86L44.73 10.22L44.73 10.22Q44.73 10.77 44.81 11.12L44.81 11.12L44.81 11.12Q44.90 11.48 45.07 11.68L45.07 11.68L45.07 11.68Q45.23 11.89 45.49 11.97L45.49 11.97L45.49 11.97Q45.74 12.05 46.07 12.05L46.07 12.05L46.07 12.05Q46.66 12.05 47.02 11.92L47.02 11.92L47.02 11.92Q47.38 11.79 47.52 11.73L47.52 11.73L47.77 12.81L47.77 12.81Q47.57 12.91 47.08 13.05L47.08 13.05L47.08 13.05Q46.59 13.20 45.96 13.20L45.96 13.20L45.96 13.20Q45.22 13.20 44.74 13.01L44.74 13.01L44.74 13.01Q44.25 12.82 43.96 12.45L43.96 12.45L43.96 12.45Q43.67 12.07 43.55 11.52L43.55 11.52L43.55 11.52Q43.43 10.96 43.43 10.23L43.43 10.23L43.43 3.74L44.73 3.51ZM55.57 9.41L55.57 9.41L55.57 9.41Q55.57 10.28 55.31 10.98L55.31 10.98L55.31 10.98Q55.06 11.68 54.61 12.18L54.61 12.18L54.61 12.18Q54.15 12.68 53.52 12.96L53.52 12.96L53.52 12.96Q52.89 13.23 52.15 13.23L52.15 13.23L52.15 13.23Q51.41 13.23 50.78 12.96L50.78 12.96L50.78 12.96Q50.15 12.68 49.69 12.18L49.69 12.18L49.69 12.18Q49.24 11.68 48.99 10.98L48.99 10.98L48.99 10.98Q48.73 10.28 48.73 9.41L48.73 9.41L48.73 9.41Q48.73 8.55 48.99 7.85L48.99 7.85L48.99 7.85Q49.24 7.14 49.69 6.64L49.69 6.64L49.69 6.64Q50.15 6.13 50.78 5.86L50.78 5.86L50.78 5.86Q51.41 5.59 52.15 5.59L52.15 5.59L52.15 5.59Q52.89 5.59 53.52 5.86L53.52 5.86L53.52 5.86Q54.15 6.13 54.61 6.64L54.61 6.64L54.61 6.64Q55.06 7.14 55.31 7.85L55.31 7.85L55.31 7.85Q55.57 8.55 55.57 9.41ZM54.21 9.41L54.21 9.41L54.21 9.41Q54.21 8.18 53.66 7.46L53.66 7.46L53.66 7.46Q53.10 6.73 52.15 6.73L52.15 6.73L52.15 6.73Q51.20 6.73 50.65 7.46L50.65 7.46L50.65 7.46Q50.09 8.18 50.09 9.41L50.09 9.41L50.09 9.41Q50.09 10.64 50.65 11.36L50.65 11.36L50.65 11.36Q51.20 12.08 52.15 12.08L52.15 12.08L52.15 12.08Q53.10 12.08 53.66 11.36L53.66 11.36L53.66 11.36Q54.21 10.64 54.21 9.41ZM60.09 5.61L60.09 5.61L60.09 5.61Q60.26 5.61 60.47 5.63L60.47 5.63L60.47 5.63Q60.69 5.66 60.90 5.69L60.90 5.69L60.90 5.69Q61.11 5.73 61.29 5.76L61.29 5.76L61.29 5.76Q61.46 5.80 61.54 5.82L61.54 5.82L61.32 6.96L61.32 6.96Q61.17 6.90 60.81 6.83L60.81 6.83L60.81 6.83Q60.45 6.75 59.89 6.75L59.89 6.75L59.89 6.75Q59.53 6.75 59.17 6.83L59.17 6.83L59.17 6.83Q58.81 6.90 58.70 6.93L58.70 6.93L58.70 13.05L57.40 13.05L57.40 6.08L57.40 6.08Q57.86 5.91 58.55 5.76L58.55 5.76L58.55 5.76Q59.23 5.61 60.09 5.61Z"></path></g> <!----> <g data-v-5f19e91b="" id="f154e517-e9ad-ba6a-e12e-cbc299a9e86c" transform="matrix(0.8999999313354544,0,0,0.8999999313354544,0.0000034332272775827732,0)" stroke="none" fill="black"><g><path d="M93.545,45.869c2.211-0.828,4.313-1.74,6.455-2.758c-0.494-4.174-1.704-8.237-3.229-12.143   c-2.311,0.167-4.692,0.47-6.998,0.841c-1.152-2.517-2.541-4.917-4.141-7.167c1.462-1.802,2.867-3.682,4.209-5.631   c-2.556-3.319-5.535-6.302-8.854-8.854c-1.945,1.342-3.825,2.743-5.622,4.201c-2.234-1.593-4.631-2.987-7.176-4.148   c0.371-2.302,0.678-4.678,0.84-6.983C65.124,1.704,61.058,0.497,56.891,0c-1.018,2.143-1.935,4.244-2.766,6.464   c-2.789-0.267-5.55-0.264-8.257-0.008C45.037,4.239,44.125,2.141,43.104,0c-4.164,0.497-8.233,1.704-12.14,3.223   c0.167,2.312,0.472,4.695,0.844,7.004c-2.516,1.153-4.915,2.539-7.164,4.14c-1.803-1.463-3.683-2.867-5.633-4.21   c-3.319,2.552-6.3,5.535-8.857,8.854c1.34,1.946,2.745,3.823,4.205,5.624c-1.591,2.233-2.986,4.629-4.148,7.172   c-2.304-0.37-4.68-0.672-6.986-0.839C1.704,34.874,0.491,38.938,0,43.111c2.144,1.019,4.244,1.934,6.464,2.761   c-0.268,2.791-0.264,5.552-0.009,8.26C4.238,54.961,2.142,55.87,0,56.891c0.491,4.171,1.704,8.234,3.224,12.143   c2.311-0.166,4.693-0.473,7-0.846c1.154,2.519,2.541,4.918,4.142,7.168c-1.464,1.8-2.87,3.679-4.213,5.634   c2.557,3.317,5.538,6.298,8.857,8.856c1.947-1.344,3.822-2.744,5.621-4.206c2.234,1.593,4.63,2.988,7.175,4.148   c-0.372,2.301-0.675,4.679-0.842,6.989c3.907,1.518,7.976,2.729,12.14,3.223c1.021-2.146,1.936-4.249,2.767-6.464   c2.789,0.267,5.55,0.264,8.257,0.009c0.831,2.213,1.746,4.313,2.763,6.455c4.167-0.493,8.233-1.705,12.139-3.223   c-0.163-2.314-0.469-4.697-0.842-7.002c2.519-1.155,4.92-2.542,7.17-4.143c1.799,1.463,3.682,2.867,5.63,4.213   c3.319-2.559,6.299-5.539,8.854-8.856c-1.338-1.951-2.742-3.825-4.201-5.623c1.592-2.234,2.989-4.632,4.15-7.177   c2.299,0.377,4.676,0.678,6.98,0.844c1.524-3.908,2.734-7.972,3.229-12.143c-2.146-1.021-4.249-1.933-6.464-2.763   C93.803,51.338,93.8,48.577,93.545,45.869z M68.465,77.387V63.232c0-7.204-6.982-13.042-14.186-13.042c0,0-4.026,4.918-4.026,4.918   l4.028,18.627l-4.498,4.593l-4.497-4.593l4.027-18.627l-4.027-4.921c-7.204,0-14.185,5.84-14.185,13.044v13.695   c-8.438-5.97-13.948-15.805-13.948-26.927c0-18.204,14.757-32.962,32.962-32.962c18.204,0,32.961,14.758,32.961,32.962   C83.078,61.413,77.278,71.47,68.465,77.387z M60.814,37.584c0,6.093-4.939,11.031-11.032,11.031   c-6.092,0-11.032-4.938-11.032-11.031s4.939-11.031,11.032-11.031C55.875,26.553,60.814,31.491,60.814,37.584z"></path></g></g></svg>