<svg data-v-1084b650="" xmlns="http://www.w3.org/2000/svg" viewBox="0 0 300 300"><!----> <!----> <rect data-v-1084b650="" fill="#ffffff" x="0" y="0" width="300px" height="300px" class="logo-background-square"></rect> <!----> <linearGradient data-v-1084b650="" gradientTransform="rotate(25)" id="f5ec1c08-c0eb-3a38-4f06-decf41713bd9" x1="0%" y1="0%" x2="100%" y2="0%"><stop data-v-1084b650="" offset="0%" style="stop-color: rgb(40, 139, 88); stop-opacity: 1;"></stop> <stop data-v-1084b650="" offset="100%" style="stop-color: rgb(21, 34, 241); stop-opacity: 1;"></stop></linearGradient> <g data-v-1084b650="" id="46a0e605-0213-cdc3-e69b-48152fb6c4a1" fill="url(#f5ec1c08-c0eb-3a38-4f06-decf41713bd9)" stroke="none" transform="matrix(0.6999999999999997,0,0,0.6999999999999997,45.00000000000004,44.999989318847696)"><svg xmlns="http://www.w3.org/2000/svg" xmlns:xlink="http://www.w3.org/1999/xlink" version="1.1" x="0px" y="0px" viewBox="0 0 100 100" style="enable-background:new 0 0 100 100;" xml:space="preserve"><g><path d="M93.545,45.869c2.211-0.828,4.313-1.74,6.455-2.758c-0.494-4.174-1.704-8.237-3.229-12.143   c-2.311,0.167-4.692,0.47-6.998,0.841c-1.152-2.517-2.541-4.917-4.141-7.167c1.462-1.802,2.867-3.682,4.209-5.631   c-2.556-3.319-5.535-6.302-8.854-8.854c-1.945,1.342-3.825,2.743-5.622,4.201c-2.234-1.593-4.631-2.987-7.176-4.148   c0.371-2.302,0.678-4.678,0.84-6.983C65.124,1.704,61.058,0.497,56.891,0c-1.018,2.143-1.935,4.244-2.766,6.464   c-2.789-0.267-5.55-0.264-8.257-0.008C45.037,4.239,44.125,2.141,43.104,0c-4.164,0.497-8.233,1.704-12.14,3.223   c0.167,2.312,0.472,4.695,0.844,7.004c-2.516,1.153-4.915,2.539-7.164,4.14c-1.803-1.463-3.683-2.867-5.633-4.21   c-3.319,2.552-6.3,5.535-8.857,8.854c1.34,1.946,2.745,3.823,4.205,5.624c-1.591,2.233-2.986,4.629-4.148,7.172   c-2.304-0.37-4.68-0.672-6.986-0.839C1.704,34.874,0.491,38.938,0,43.111c2.144,1.019,4.244,1.934,6.464,2.761   c-0.268,2.791-0.264,5.552-0.009,8.26C4.238,54.961,2.142,55.87,0,56.891c0.491,4.171,1.704,8.234,3.224,12.143   c2.311-0.166,4.693-0.473,7-0.846c1.154,2.519,2.541,4.918,4.142,7.168c-1.464,1.8-2.87,3.679-4.213,5.634   c2.557,3.317,5.538,6.298,8.857,8.856c1.947-1.344,3.822-2.744,5.621-4.206c2.234,1.593,4.63,2.988,7.175,4.148   c-0.372,2.301-0.675,4.679-0.842,6.989c3.907,1.518,7.976,2.729,12.14,3.223c1.021-2.146,1.936-4.249,2.767-6.464   c2.789,0.267,5.55,0.264,8.257,0.009c0.831,2.213,1.746,4.313,2.763,6.455c4.167-0.493,8.233-1.705,12.139-3.223   c-0.163-2.314-0.469-4.697-0.842-7.002c2.519-1.155,4.92-2.542,7.17-4.143c1.799,1.463,3.682,2.867,5.63,4.213   c3.319-2.559,6.299-5.539,8.854-8.856c-1.338-1.951-2.742-3.825-4.201-5.623c1.592-2.234,2.989-4.632,4.15-7.177   c2.299,0.377,4.676,0.678,6.98,0.844c1.524-3.908,2.734-7.972,3.229-12.143c-2.146-1.021-4.249-1.933-6.464-2.763   C93.803,51.338,93.8,48.577,93.545,45.869z M68.465,77.387V63.232c0-7.204-6.982-13.042-14.186-13.042c0,0-4.026,4.918-4.026,4.918   l4.028,18.627l-4.498,4.593l-4.497-4.593l4.027-18.627l-4.027-4.921c-7.204,0-14.185,5.84-14.185,13.044v13.695   c-8.438-5.97-13.948-15.805-13.948-26.927c0-18.204,14.757-32.962,32.962-32.962c18.204,0,32.961,14.758,32.961,32.962   C83.078,61.413,77.278,71.47,68.465,77.387z M60.814,37.584c0,6.093-4.939,11.031-11.032,11.031   c-6.092,0-11.032-4.938-11.032-11.031s4.939-11.031,11.032-11.031C55.875,26.553,60.814,31.491,60.814,37.584z"></path></g></svg></g></svg>